<svg t="1721901528839" class="icon" viewBox="0 0 1024 1024" version="1.1" xmlns="http://www.w3.org/2000/svg" p-id="3176" width="100" height="100"><path d="M272 512h480c44.184 0 80 35.816 80 80v160c0 44.184-35.816 80-80 80H272c-44.182 0-80-35.816-80-80v-160c0-44.184 35.818-80 80-80z" fill="#dbdbdb" p-id="3177"></path><path d="M715 751h-404c-16.568 0-30-13.432-30-30s13.432-30 30-30h404c16.568 0 30 13.432 30 30s-13.432 30-30 30z" fill="#bfbfbf" p-id="3178"></path><path d="M706 636m-34 0a34 34 0 1 0 68 0 34 34 0 1 0-68 0Z" fill="#bfbfbf" p-id="3179"></path><path d="M352 492c-16.568 0-30-13.432-30-30V222c0-16.568 13.432-30 30-30s30 13.432 30 30v240c0 16.568-13.432 30-30 30z" fill="#1296db" p-id="3180"></path><path d="M278.46 325.54a29.892 29.892 0 0 1-21.212-8.788c-11.716-11.716-11.716-30.71 0-42.426l73.54-73.54c11.714-11.716 30.71-11.716 42.426 0 11.716 11.716 11.716 30.71 0 42.426l-73.54 73.54a29.908 29.908 0 0 1-21.214 8.788z" fill="#1296db" p-id="3181"></path><path d="M425.54 325.54a29.892 29.892 0 0 1-21.212-8.788l-73.54-73.54c-11.716-11.716-11.716-30.71 0-42.426 11.714-11.716 30.71-11.716 42.426 0l73.54 73.54c11.716 11.716 11.716 30.71 0 42.426a29.9 29.9 0 0 1-21.214 8.788z" fill="#1296db" p-id="3182"></path><path d="M671.54 492c-16.568 0-30-13.432-30-30V222c0-16.568 13.432-30 30-30s30 13.432 30 30v240c0 16.568-13.432 30-30 30z" fill="#dbdbdb" p-id="3183"></path><path d="M671.54 492a29.892 29.892 0 0 1-21.212-8.788l-73.54-73.54c-11.716-11.716-11.716-30.71 0-42.426 11.714-11.716 30.71-11.716 42.426 0l73.54 73.54c11.716 11.716 11.716 30.71 0 42.426A29.916 29.916 0 0 1 671.54 492z" fill="#dbdbdb" p-id="3184"></path><path d="M671.54 492a29.892 29.892 0 0 1-21.212-8.788c-11.716-11.716-11.716-30.71 0-42.426l73.54-73.54c11.714-11.716 30.71-11.716 42.426 0 11.716 11.716 11.716 30.71 0 42.426l-73.54 73.54A29.906 29.906 0 0 1 671.54 492z" fill="#dbdbdb" p-id="3185"></path></svg>